#!OML:ASF I:\Actors\actors\Patient Classification 1\Patient 1\Session 1\Subject1.ASF
:FULLY-SPECIFIED
:DEGREES
425
root 0.7159 17.795 8.22117 11.5497 0.834806 -9.92297
lowerback 7.62947 0.566886 12.0863
upperback -6.82561 2.20079 -1.44239
thorax -11.3666 -0.00935464 -8.79449
lowerneck -15.7346 -6.60144 -3.80097
upperneck 8.77498 -10.3652 16.5118
head 6.40892 -3.95726 4.81236
rclavicle 1.93567e-014 -1.59028e-015
rhumerus -38.6913 33.4396 -113.915
rradius 125.917
rwrist 4.3951
rhand -12.4976 -39.5795
rfingers 7.12502
rthumb 13.5774 -69.1168
lclavicle 1.93567e-014 -1.59028e-015
lhumerus -41.6689 -46.6521 100.761
lradius 124.228
lwrist 21.592
lhand -43.4977 -37.2887
lfingers 7.12502
lthumb -16.3376 -7.9569
rfemur -13.7936 20.0589 25.1618
rtibia 11.4816
rfoot -12.5361 -17.7519
rtoes -2.05156
lfemur -6.67929 -34.2795 -2.24742
ltibia -0.120561
lfoot -13.8139 42.6126
ltoes 0.317516
426
root 0.72818 17.7897 8.22127 11.3086 1.05167 -10.5348
lowerback 7.8485 0.467009 12.9154
upperback -6.74606 2.21762 -1.28105
thorax -11.4099 -0.0614413 -9.09689
lowerneck -15.7343 -6.61968 -3.85643
upperneck 8.2864 -10.3349 16.7337
head 6.27027 -3.95456 4.89517
rclavicle 1.51573e-015 1.11319e-014
rhumerus -39.2593 33.7361 -114.184
rradius 125.688
rwrist 4.52343
rhand -11.4192 -40.5078
rfingers 7.12502
rthumb 14.6166 -69.9727
lclavicle 1.51573e-015 1.11319e-014
lhumerus -41.4313 -46.5138 100.174
lradius 123.838
lwrist 22.4281
lhand -43.7472 -37.2168
lfingers 7.12502
lthumb -16.5778 -7.9049
rfemur -13.4282 19.7248 26.0266
rtibia 11.4509
rfoot -12.5236 -17.5195
rtoes -2.15306
lfemur -6.20926 -34.4384 -1.78564
ltibia -0.397002
lfoot -13.6796 42.6263
ltoes 0.257416
427
root 0.735432 17.7888 8.21972 11.1913 1.10668 -10.8737
lowerback 7.99447 0.379519 13.3098
upperback -6.74145 2.18715 -1.15187
thorax -11.5073 -0.109712 -9.17738
lowerneck -15.726 -6.58668 -3.75532
upperneck 8.01037 -10.2601 16.6866
head 6.16588 -3.9339 4.87134
rclavicle -7.60351e-015 -3.02153e-014
rhumerus -38.9186 33.5134 -113.753
rradius 125.602
rwrist 4.48484
rhand -11.9872 -40.0067
rfingers 7.12502
rthumb 14.0694 -69.5104
lclavicle -7.60351e-015 -3.02153e-014
lhumerus -41.8235 -46.5528 100.104
lradius 123.454
lwrist 22.6691
lhand -43.998 -37.8567
lfingers 7.12502
lthumb -16.8193 -8.56519
rfemur -13.2852 19.5868 26.4826
rtibia 11.4867
rfoot -12.5476 -17.3675
rtoes -2.08053
lfemur -5.94111 -34.6445 -1.53364
ltibia -0.556152
lfoot -13.8204 42.786
ltoes 0.566714
428
root 0.733463 17.7951 8.22095 11.3124 0.900339 -10.4233
lowerback 7.90337 0.392412 12.7418
upperback -6.80225 2.11038 -1.23217
thorax -11.5381 -0.108768 -8.92916
lowerneck -15.6589 -6.62344 -3.79896
upperneck 7.7586 -10.2649 16.705
head 6.07936 -3.9536 4.88414
rclavicle -1.57661e-014 -1.11319e-014
rhumerus -37.6969 33.0808 -112.825
rradius 125.483
rwrist 4.15688
rhand -10.8764 -39.9582
rfingers 7.12502
rthumb 15.1396 -69.3845
lclavicle -1.57661e-014 -1.11319e-014
lhumerus -42.4994 -46.7521 100.421
lradius 123.193
lwrist 22.2608
lhand -44.4533 -39.435
lfingers 7.12502
lthumb -17.2575 -10.1812
rfemur -13.503 19.7678 25.8705
rtibia 11.5843
rfoot -12.5706 -17.4138
rtoes -1.93258
lfemur -5.93079 -35.2175 -2.06365
ltibia -0.613185
lfoot -14.3431 43.3908
ltoes 1.5393
429
root 0.733463 17.7982 8.21723 11.4038 0.724295 -10.0319
lowerback 7.89559 0.397734 12.3299
upperback -6.86306 2.0547 -1.33402
thorax -11.6141 -0.115288 -8.80159
lowerneck -15.5701 -6.70071 -3.91715
upperneck 7.46514 -10.3315 16.9166
head 6.00036 -3.99519 4.96468
rclavicle 2.26739e-014 1.43125e-014
rhumerus -36.052 32.7055 -111.763
rradius 125.412
rwrist 3.63518
rhand -9.76804 -40.2793
rfingers 7.12502
rthumb 16.207 -69.6218
lclavicle 2.26739e-014 1.43125e-014
lhumerus -43.1988 -47.1492 101.025
lradius 122.948
lwrist 21.6936
lhand -45.1361 -41.3063
lfingers 7.12502
lthumb -17.9146 -12.1114
rfemur -13.7006 19.9111 25.3232
rtibia 11.6494
rfoot -12.5229 -17.4829
rtoes -2.11021
lfemur -5.98475 -35.7135 -2.50691
ltibia -0.586997
lfoot -14.832 43.898
ltoes 2.47146
430
root 0.749024 17.7846 8.20499 11.0478 0.845856 -10.9449
lowerback 8.41708 0.23878 13.6205
upperback -6.87458 2.11307 -1.17841
thorax -11.9452 -0.216777 -9.39695
lowerneck -15.2919 -6.6947 -3.81557
upperneck 7.14939 -10.3127 17.0488
head 5.85677 -4.00534 4.99766
rclavicle 6.33626e-015 3.97569e-015
rhumerus -34.0757 32.9574 -110.445
rradius 125.146
rwrist 2.84723
rhand -9.54501 -40.7577
rfingers 7.12502
rthumb 16.4218 -70.0826
lclavicle 6.33626e-015 3.97569e-015
lhumerus -44.3348 -47.8275 102.039
lradius 122.543
lwrist 21.261
lhand -45.6704 -43.2288
lfingers 7.12502
lthumb -18.4287 -14.0818
rfemur -13.2361 19.6644 26.5373
rtibia 11.5776
rfoot -12.4532 -17.1988
rtoes -2.42229
lfemur -5.49477 -35.5861 -1.75428
ltibia -0.712931
lfoot -14.6962 43.7633
ltoes 2.34961
